<?xml version="1.0" encoding="utf-8"?>
<svg viewBox="0 0 1500 2100" width="1500px" height="2100px" style="fill-rule:evenodd;clip-rule:evenodd;stroke-linejoin:round;stroke-miterlimit:2;" xmlns="http://www.w3.org/2000/svg">
  <g id="Masks" transform="matrix(0.9999999999999999, 0, 0, 0.9999999999999999, 2.2737367544323206e-13, 0)">
    <path id="Pinline" d="M 1395 1851.34 C 1395.75 1851.77 1396.45 1852.31 1397.07 1852.93 L 1464.14 1920 L 1397.07 1987.07 C 1395.2 1988.95 1392.65 1990 1390 1990 L 110 1990 C 107.348 1990 104.804 1988.95 102.929 1987.07 L 35.858 1920 L 102.929 1852.93 C 103.552 1852.31 104.25 1851.77 105 1851.34 L 1395 1851.34 Z M 115 1850 L 1385 1850 L 115 1850 Z M 1430 1930 C 1435.52 1930 1440 1925.52 1440 1920 C 1440 1914.48 1435.52 1910 1430 1910 C 1424.48 1910 1420 1914.48 1420 1920 C 1420 1925.52 1424.48 1930 1430 1930 Z M 1390 1860 L 110 1860 L 70 1900 C 81.038 1900 90 1908.96 90 1920 C 90 1931.04 81.038 1940 70 1940 L 110 1980 L 1390 1980 L 1430 1940 C 1418.96 1940 1410 1931.04 1410 1920 C 1410 1908.96 1418.96 1900 1430 1900 L 1390 1860 Z M 70 1930 C 75.519 1930 80 1925.52 80 1920 C 80 1914.48 75.519 1910 70 1910 C 64.481 1910 60 1914.48 60 1920 C 60 1925.52 64.481 1930 70 1930 Z M 1390 60 C 1392.65 60 1395.2 61.054 1397.07 62.929 L 1464.14 130 L 1397.07 197.071 C 1395.2 198.946 1392.65 200 1390 200 L 110 200 C 107.348 200 104.804 198.946 102.929 197.071 L 35.858 130 L 102.929 62.929 C 104.804 61.054 107.348 60 110 60 L 1390 60 Z M 110 70 L 70 110 C 81.038 110 90 118.962 90 130 C 90 141.038 81.038 150 70 150 L 110 190 L 1390 190 L 1430 150 C 1418.96 150 1410 141.038 1410 130 C 1410 118.962 1418.96 110 1430 110 L 1390 70 L 110 70 Z M 1430 120 C 1424.48 120 1420 124.481 1420 130 C 1420 135.519 1424.48 140 1430 140 C 1435.52 140 1440 135.519 1440 130 C 1440 124.481 1435.52 120 1430 120 Z M 70 120 C 64.481 120 60 124.481 60 130 C 60 135.519 64.481 140 70 140 C 75.519 140 80 135.519 80 130 C 80 124.481 75.519 120 70 120 Z" style="fill: rgb(0, 0, 0); fill-rule: nonzero;"/>
  </g>
</svg>