<?xml version="1.0" encoding="UTF-8" standalone="no"?>
<!DOCTYPE svg PUBLIC "-//W3C//DTD SVG 1.1//EN" "http://www.w3.org/Graphics/SVG/1.1/DTD/svg11.dtd">
<svg width="1500" height="2100" viewBox="0 0 1500 2100" version="1.1" xmlns="http://www.w3.org/2000/svg" xmlns:xlink="http://www.w3.org/1999/xlink" xml:space="preserve" xmlns:serif="http://www.serif.com/" style="fill-rule:evenodd;clip-rule:evenodd;stroke-linejoin:round;stroke-miterlimit:2;">
    <g id="Masks">
        <path id="title" d="M1390,190L110,190L70,150C81.038,150 90,141.038 90,130C90,118.962 81.038,110 70,110L110,70L1390,70L1430,110C1418.96,110 1410,118.962 1410,130C1410,141.038 1418.96,150 1430,150L1390,190ZM70,120C75.519,120 80,124.481 80,130C80,135.519 75.519,140 70,140C64.481,140 60,135.519 60,130C60,124.481 64.481,120 70,120ZM1430,120C1435.52,120 1440,124.481 1440,130C1440,135.519 1435.52,140 1430,140C1424.48,140 1420,135.519 1420,130C1420,124.481 1424.48,120 1430,120Z" style="fill:rgb(0,0,0);"/>
    </g>
<script xmlns=""/></svg>