<?xml version="1.0" encoding="utf-8"?>
<svg viewBox="0 0 1500 2100" width="1500px" height="2100px" style="fill-rule:evenodd;clip-rule:evenodd;stroke-linejoin:round;stroke-miterlimit:2;" xmlns="http://www.w3.org/2000/svg">
  <g id="Masks" transform="matrix(1, 0, 0, 1, 2.842170943040401e-14, 2.842170943040401e-14)">
    <path id="type" d="M 110 1860 L 1390 1860 L 1430 1900 C 1418.96 1900 1410 1908.96 1410 1920 C 1410 1931.04 1418.96 1940 1430 1940 L 1390 1980 L 110 1980 L 70 1940 C 81.038 1940 90 1931.04 90 1920 C 90 1908.96 81.038 1900 70 1900 L 110 1860 Z M 1430 1930 C 1424.48 1930 1420 1925.52 1420 1920 C 1420 1914.48 1424.48 1910 1430 1910 C 1435.52 1910 1440 1914.48 1440 1920 C 1440 1925.52 1435.52 1930 1430 1930 Z M 70 1930 C 64.481 1930 60 1925.52 60 1920 C 60 1914.48 64.481 1910 70 1910 C 75.519 1910 80 1914.48 80 1920 C 80 1925.52 75.519 1930 70 1930 Z" style="fill:rgb(0,0,0);"/>
  </g>
</svg>